<?xml version="1.0" standalone="yes"?>
<svg xmlns="http://www.w3.org/2000/svg" width="400" height="400" viewBox="-6 -38 400 400">
<path style="fill:#D4A853; stroke:none;" d="M211.027 22.6671C175.122 25.3119 198.815 80.3772 199.003 102C199.055 107.961 200.931 130.427 209.008 130.579C213.359 130.66 216.414 125.434 218.909 122.557C226.695 113.579 233.914 104.52 240.771 95C250.844 81.017 286.997 50.1321 256.986 34.5361C249.059 30.4167 239.728 35.2005 232.436 32.1689C224.407 28.831 220.999 21.9325 211.027 22.6671M104 70C84.923 70.2724 72.9389 92.3065 85.3364 107.907C90.3379 114.201 99.7942 116.374 106.99 119.122C121.753 124.76 136.013 131.298 151.001 136.459C157.116 138.565 168.579 145.673 173.85 138.28C177.029 133.821 172.993 127.157 171.231 123C166.073 110.833 162.492 97.7909 157.074 85.8036C152.376 75.4102 150.432 57.4924 141.619 49.7298C126.573 36.4767 104.035 53.6241 104 70M303 95.9254C283.334 103.305 263.385 124.029 247 136.993C242.202 140.789 231.007 146.508 232.486 153.986C233.924 161.252 247.998 162.473 254 162.967C272.863 164.519 291.013 170.143 310 171.059C315.89 171.344 323.017 173.528 328.681 171.024C337.58 167.092 342.504 151.7 338.993 143C337.021 138.115 332.155 134.837 330.37 130C328.633 125.295 331.628 119.111 330.714 114C328.678 102.62 314.599 91.573 303 95.9254M195 144.582C168.486 150.536 176.594 191.635 203 185.542C228.418 179.677 220.836 138.78 195 144.582M146 166C130.281 169.098 108.732 162.69 93.1147 159.699C85.0505 158.155 75.5454 155.933 68.0105 160.615C58.374 166.603 54.9367 180.614 59.4249 190.999C61.1064 194.89 65.8456 197.446 66.9646 201.308C67.9203 204.606 65.3526 207.741 65.3484 211C65.3332 222.707 74.1027 234.163 86 234.929C96.1604 235.583 101.511 229.272 109 223.411C122.387 212.934 135.888 202.581 149.137 192.062C154.423 187.865 165.752 182.059 164.742 174.041C163.786 166.447 150.953 169.98 146 166M226.157 188.858C216.506 192.904 227.527 208.784 228.948 215.059C233.082 233.309 242.682 258.037 253.577 273.302C258.536 280.249 267.879 285.139 276.432 281.909C288.082 277.51 288.133 268.283 295.62 260.68C299.036 257.211 304.99 256.225 308.91 253.155C316.727 247.035 320.56 231.526 314.352 223.031C306.422 212.18 288.251 212.354 277 205.977C265.662 199.551 253.43 195.632 241 191.993C236.508 190.678 230.94 186.853 226.157 188.858M184.06 199.845C177.096 202.686 172.134 212.65 167.558 218.305C155.718 232.938 118.499 265.653 131.845 286.986C141.593 302.569 152.371 292.825 164.716 296C176.764 299.099 180.6 311.987 195.999 305.276C202.398 302.487 207.897 293.875 208.369 286.807C209.703 266.828 201.454 240.825 197.727 221C196.217 212.964 197.95 194.177 184.06 199.845z"/>
</svg>
